<svg id="visual" viewBox="0 0 960 540" width="960" height="540" xmlns="http://www.w3.org/2000/svg" xmlns:xlink="http://www.w3.org/1999/xlink" version="1.1"><rect x="0" y="0" width="960" height="540" fill="#fff"></rect><path d="M0 107L12.3 111.5C24.7 116 49.3 125 74 142.8C98.7 160.7 123.3 187.3 148 198.3C172.7 209.3 197.3 204.7 221.8 194.3C246.3 184 270.7 168 295.2 157C319.7 146 344.3 140 369 128.2C393.7 116.3 418.3 98.7 443 100.8C467.7 103 492.3 125 517 129C541.7 133 566.3 119 591 105.3C615.7 91.7 640.3 78.3 664.8 76.5C689.3 74.7 713.7 84.3 738.2 105.3C762.7 126.3 787.3 158.7 812 177.5C836.7 196.3 861.3 201.7 886 197.5C910.7 193.3 935.3 179.7 947.7 172.8L960 166L960 0L947.7 0C935.3 0 910.7 0 886 0C861.3 0 836.7 0 812 0C787.3 0 762.7 0 738.2 0C713.7 0 689.3 0 664.8 0C640.3 0 615.7 0 591 0C566.3 0 541.7 0 517 0C492.3 0 467.7 0 443 0C418.3 0 393.7 0 369 0C344.3 0 319.7 0 295.2 0C270.7 0 246.3 0 221.8 0C197.3 0 172.7 0 148 0C123.3 0 98.7 0 74 0C49.3 0 24.7 0 12.3 0L0 0Z" fill="#18dcff" stroke-linecap="round" stroke-linejoin="miter"></path></svg>