<svg id="visual" viewBox="0 0 960 540" width="960" height="540" xmlns="http://www.w3.org/2000/svg" xmlns:xlink="http://www.w3.org/1999/xlink" version="1.1"><rect x="0" y="0" width="960" height="540" fill="#2c3e50"></rect><defs><linearGradient id="grad1_0" x1="43.8%" y1="0%" x2="100%" y2="100%"><stop offset="14.444444444444446%" stop-color="#2c3e50" stop-opacity="1"></stop><stop offset="85.55555555555554%" stop-color="#2c3e50" stop-opacity="1"></stop></linearGradient></defs><defs><linearGradient id="grad2_0" x1="0%" y1="0%" x2="56.3%" y2="100%"><stop offset="14.444444444444446%" stop-color="#2c3e50" stop-opacity="1"></stop><stop offset="85.55555555555554%" stop-color="#2c3e50" stop-opacity="1"></stop></linearGradient></defs><g transform="translate(960, 0)"><path d="M0 324C-27 299 -53.9 273.9 -86.8 267.2C-119.7 260.6 -158.5 272.3 -190.4 262.1C-222.4 251.9 -247.4 219.8 -256.5 186.3C-265.5 152.9 -258.6 118.1 -267.2 86.8C-275.8 55.6 -299.9 27.8 -324 0L0 0Z" fill="#FBAE3C"></path></g><g transform="translate(0, 540)"><path d="M0 -324C33.5 -310.5 67 -297 89 -273.9C111 -250.8 121.4 -218.3 148.7 -204.7C176 -191.1 220.2 -196.5 250.8 -182.2C281.3 -167.9 298.2 -133.8 308.1 -100.1C318.1 -66.5 321 -33.2 324 0L0 0Z" fill="#FBAE3C"></path></g></svg>